<svg xmlns="http://www.w3.org/2000/svg" width="1240" height="1240"><path d="M111 1.137C88.979 3.421 65.804 12.65 48.428 26.056c-7.34 5.662-21.254 20.316-26.06 27.446C12.099 68.735 4.592 87.568 1.841 105.003-.096 117.275-.16 1123.615 1.775 1135c1.692 9.956 6.644 25.829 10.775 34.536 7.696 16.222 22.73 34.523 37.362 45.481 15.009 11.24 36.273 20.173 55.091 23.142 12.272 1.937 1018.612 2.001 1029.997.066 4.125-.701 12-2.661 17.5-4.356 20.563-6.336 34.968-15.083 50.627-30.742 15.666-15.666 24.421-30.088 30.735-50.627 3.285-10.688 5.118-20.402 5.13-27.191.005-2.305.458-4.469 1.008-4.809.665-.411 1-168.697 1-501.618 0-333.745-.334-500.794-1-500.382-.612.378-1.014-1.247-1.035-4.191-.093-12.786-6.967-36.276-14.598-49.884-6.449-11.499-12.844-19.672-23.227-29.681-17.483-16.854-37.048-26.939-63.14-32.548C1131.163.727 1085.808.57 625 .42 339.021.327 115.809.638 111 1.137M.496 620c0 275.825.114 388.663.254 250.75.14-137.912.14-363.587 0-501.5C.61 231.338.496 344.175.496 620m948.427-493.077L946 129.846V158h-13.944c-13.229 0-14.086.122-16.7 2.37-2.099 1.806-2.756 3.267-2.756 6.13s.657 4.324 2.756 6.13c2.613 2.247 3.475 2.37 16.626 2.37h13.87l.324 14.398c.278 12.331.59 14.692 2.178 16.444 4.296 4.74 12.431 3.083 14.538-2.961.609-1.749 1.108-8.737 1.108-15.53V175h14.045c13.58 0 14.127-.081 16.5-2.455 1.695-1.694 2.455-3.566 2.455-6.045s-.76-4.351-2.455-6.045c-2.373-2.374-2.92-2.455-16.5-2.455H964v-12.532c0-13.431-1.189-18.428-4.85-20.388-3.532-1.89-7.145-1.239-10.227 1.843m-365.367 23.183c-52.683 2.503-106.18 13.985-154.056 33.065-18.679 7.444-53.142 24.371-69.014 33.897-111.825 67.116-191.501 174.246-222.837 299.621-9.429 37.727-15.303 85.921-13.669 112.15.45 7.214.839 8.597 2.881 10.25 3.286 2.66 8.662 2.479 11.531-.39 2.211-2.211 2.325-3.122 2.907-23.25 4.113-142.346 77.558-278.388 195.541-362.204 53.509-38.013 110.758-63.107 174.832-76.635 26.366-5.567 61.369-9.609 83.239-9.612 14.602-.001 18.951-1.387 20.389-6.498 1.815-6.455-3.525-11.716-11.518-11.349-1.805.083-10.907.513-20.226.955m55.444-.4c-6.228 2.277-8.067 10.002-3.421 14.37 2.263 2.127 3.695 2.468 11.675 2.78 5.121.2 10.784-.15 12.962-.802 7.972-2.389 8.711-12.515 1.144-15.677-3.238-1.353-19.186-1.831-22.36-.671m-67.5 77.395c-81.301 6.677-162.279 40.318-226 93.886-70.629 59.375-119.216 140.606-137.45 229.797-12.234 59.846-10.272 125.802 5.532 185.962 23.069 87.813 75.986 166.464 149.023 221.494 59.539 44.859 130.031 72.22 205.895 79.915 18.579 1.885 62.23 1.622 81-.487 67.064-7.535 125.607-28.579 181.965-65.41 91.002-59.469 156.204-157.464 175.904-264.374 5.233-28.399 6.135-39.209 6.077-72.884-.04-23.2-.507-35.32-1.773-46-9.534-80.424-37.715-148.459-87.673-211.661-16.951-21.445-49.742-53.112-73.5-70.981-59.578-44.809-133.358-72.752-209.5-79.345-13.372-1.158-54.971-1.105-69.5.088m496.423 9.822l-2.923 2.923V268h-28.154l-2.923 2.923c-1.762 1.762-2.923 3.977-2.923 5.577s1.161 3.815 2.923 5.577l2.923 2.923H1065v13.453c0 14.454.77 17.665 4.657 19.437 3.813 1.737 6.824 1.32 9.697-1.342 2.628-2.436 2.646-2.553 2.646-17V285h13.566c8.395 0 14.398-.443 15.75-1.163 5.487-2.923 6.239-8.436 1.761-12.914l-2.923-2.923H1082v-28.822l-3.077-2.589c-4.032-3.393-7.375-3.291-11 .334M588 285.59c-35.664 3.106-55.712 6.711-82.305 14.799-32.826 9.984-60.962 23.358-90.695 43.11-21.082 14.005-34.646 25.116-53.078 43.48-60.733 60.509-96.783 139.799-101.72 223.729-.944 16.045.227 49.596 2.279 65.292 9.004 68.864 36.867 131.618 81.332 183.181 31.597 36.64 67.049 63.974 110.687 85.341 47.201 23.111 90.818 33.835 143.171 35.202 61.325 1.601 117.397-11.534 172.232-40.347 97.02-50.98 165.115-147.484 181.148-256.723 6.305-42.962 3.603-91.482-7.555-135.654-19.331-76.527-64.59-144.431-127.993-192.034C765.629 317.52 709.175 294.902 647 287.453c-12.164-1.457-49.958-2.65-59-1.863m-3.5 17.008c-18.187 1.824-25.464 2.75-35.091 4.462-88.845 15.8-167.137 67.156-217.913 142.94-31.413 46.884-49.975 100.871-54.495 158.5-1.418 18.072-.045 51.918 2.921 72.031 12.254 83.09 54.17 156.254 120.539 210.398 20.333 16.587 55.167 37.347 79.544 47.406 75.712 31.24 161.661 33.324 238.495 5.783C803.727 913.569 874.503 847.473 910.301 765c13.075-30.122 20.585-57.253 25.33-91.5 2.139-15.433 2.402-54.164.494-72.5-6.744-64.792-29.395-121.176-69.5-172.999-9.143-11.814-39.22-42.522-50.625-51.687-49.158-39.502-104.991-63.47-167.5-71.905-10.456-1.411-55.327-2.681-64-1.811m11.803 143.858c-15.088 7.609-15.822 9.523-28.812 75.125-5.763 29.105-10.481 53.256-10.484 53.669-.004.413 4.646.75 10.333.75 13.451 0 22.855 2.392 37.66 9.577 20.477 9.939 39.749 24.229 58.071 43.059 16.805 17.27 28.205 34.262 32.276 48.109 1.521 5.172 1.512 5.252-.652 5.737-46.528 10.441-131.483 18.142-156.946 14.228-18.821-2.893-22.928-6.881-23.749-23.061l-.5-9.851-18-5.771-18-5.771-2.332 7.122c-4.448 13.582-12.264 43.194-15.209 57.622-4.404 21.573-5.556 35.502-4.069 49.215C459.663 801 475.146 816.389 511 820.99c38.807 4.981 108.855-.436 168.31-13.015 18.392-3.892 26.606-6.169 38.061-10.554l9.352-3.579 6.092-13.671c18.149-40.731 24.844-66.25 25.895-98.706.855-26.409-2.393-48.006-11.279-75.012-15.574-47.328-41.329-89.436-75.869-124.045-17.914-17.948-33.294-30.419-43.502-35.273-6.314-3.002-8.734-3.596-16-3.923-8.21-.37-8.854-.238-15.757 3.244m481.807 178.899c-4.261 2.434-5.036 5.271-5.09 18.645-.161 39.09-7.743 85.152-21.153 128.5-11.775 38.064-34.475 85.334-57.077 118.852-27.228 40.381-61.31 77.105-100.29 108.064-14.723 11.694-44.599 31.465-62.765 41.538-59.116 32.778-127.269 52.582-196.218 57.018-8.791.565-19.499 1.028-23.795 1.028-6.962 0-8.08.267-10.267 2.455a8.546 8.546 0 000 12.09c2.351 2.352 2.99 2.454 15.25 2.443 21.72-.021 58.184-3.826 82.292-8.588 138.658-27.384 257.951-113.209 328.588-236.4 39.063-68.127 61.635-149.564 62.697-226.208.202-14.542.069-15.859-1.785-17.726-2.626-2.644-7.383-3.427-10.387-1.711M556.364 1100.17c-2.16 1.045-4.364 4.748-4.364 7.33 0 2.725 2.248 6.292 4.657 7.39 1.341.61 7.386 1.11 13.436 1.11 10.343 0 11.144-.146 13.452-2.455 1.695-1.694 2.455-3.566 2.455-6.045s-.76-4.351-2.455-6.045c-2.326-2.326-3.046-2.451-13.75-2.387-6.212.037-12.256.533-13.431 1.102" fill="undefined" fill-rule="evenodd"/></svg>