<svg xmlns="http://www.w3.org/2000/svg" width="1240" height="1240"><path d="M363.153 3.5c-.137 2.988-.429 3.62-1.153 2.5-.699-1.082-1.024.034-1.165 4-.186 5.248-.225 5.156-.835-2s-.649-7.248-.835-2c-.141 3.966-.466 5.082-1.165 4-.699-1.082-1.024.034-1.165 4-.186 5.248-.225 5.156-.835-2s-.649-7.248-.835-2c-.141 3.966-.466 5.082-1.165 4-.699-1.082-1.024.034-1.165 4-.186 5.248-.225 5.156-.835-2s-.649-7.248-.835-2c-.141 3.966-.466 5.082-1.165 4-.699-1.082-1.024.034-1.165 4-.186 5.248-.225 5.156-.835-2s-.649-7.248-.835-2c-.141 3.966-.466 5.082-1.165 4-.699-1.082-1.024.034-1.165 4-.186 5.248-.225 5.156-.835-2s-.649-7.248-.835-2c-.141 3.966-.466 5.082-1.165 4-.699-1.082-1.024.034-1.165 4-.186 5.248-.225 5.156-.835-2s-.649-7.248-.835-2c-.141 3.966-.466 5.082-1.165 4-.699-1.082-1.024.034-1.165 4-.186 5.248-.225 5.156-.835-2-.638-7.48-.641-7.486-.951-2-.293 5.16-.358 5.284-1.049 2-.608-2.886-.791-2.185-1.049 4l-.311 7.5L332 36c-.638-7.48-.641-7.486-.951-2-.293 5.16-.358 5.284-1.049 2-.608-2.886-.791-2.185-1.049 4l-.311 7.5L328 40c-.638-7.48-.641-7.486-.951-2-.293 5.16-.358 5.284-1.049 2-.608-2.886-.791-2.185-1.049 4l-.311 7.5L324 44c-.638-7.48-.641-7.486-.951-2-.293 5.16-.358 5.284-1.049 2-.608-2.886-.791-2.185-1.049 4l-.311 7.5L320 48c-.638-7.48-.641-7.486-.951-2-.293 5.16-.358 5.284-1.049 2-.689-3.275-.756-3.147-1.031 2l-.295 5.5L316 50l-.674-5.5-.295 5.5c-.275 5.147-.342 5.275-1.031 2-.689-3.275-.756-3.147-1.031 2l-.295 5.5L312 54l-.674-5.5-.295 5.5c-.275 5.147-.342 5.275-1.031 2-.691-3.284-.756-3.16-1.049 2-.31 5.486-.313 5.48-.951-2l-.64-7.5-.311 7.5c-.258 6.185-.441 6.886-1.049 4-.691-3.284-.756-3.16-1.049 2-.31 5.486-.313 5.48-.951-2l-.64-7.5-.311 7.5c-.258 6.185-.441 6.886-1.049 4-.691-3.284-.756-3.16-1.049 2-.31 5.486-.313 5.48-.951-2l-.64-7.5-.311 7.5c-.258 6.185-.441 6.886-1.049 4-.691-3.284-.756-3.16-1.049 2-.31 5.486-.313 5.48-.951-2l-.64-7.5-.311 7.5c-.258 6.185-.441 6.886-1.049 4-.691-3.284-.756-3.16-1.049 2-.31 5.486-.313 5.48-.951-2-.61-7.156-.649-7.248-.835-2-.141 3.966-.466 5.082-1.165 4-.699-1.082-1.024.034-1.165 4-.186 5.248-.225 5.156-.835-2s-.649-7.248-.835-2c-.141 3.966-.466 5.082-1.165 4-.699-1.082-1.024.034-1.165 4-.186 5.248-.225 5.156-.835-2s-.649-7.248-.835-2c-.141 3.966-.466 5.082-1.165 4-.699-1.082-1.024.034-1.165 4-.186 5.248-.225 5.156-.835-2s-.649-7.248-.835-2c-.141 3.966-.466 5.082-1.165 4-.699-1.082-1.024.034-1.165 4-.186 5.248-.225 5.156-.835-2s-.649-7.248-.835-2c-.141 3.966-.466 5.082-1.165 4-.699-1.082-1.024.034-1.165 4-.186 5.248-.225 5.156-.835-2s-.649-7.248-.835-2c-.141 3.966-.466 5.082-1.165 4-.699-1.082-1.024.034-1.165 4-.186 5.248-.225 5.156-.835-2s-.649-7.248-.835-2c-.141 3.966-.466 5.082-1.165 4-.699-1.082-1.024.034-1.165 4-.186 5.248-.225 5.156-.835-2s-.649-7.248-.835-2c-.141 3.966-.466 5.082-1.165 4-.699-1.082-1.024.034-1.165 4-.186 5.248-.225 5.156-.835-2-.638-7.48-.641-7.486-.951-2-.293 5.16-.358 5.284-1.049 2-.608-2.886-.791-2.185-1.049 4l-.311 7.5-.64-7.5c-.638-7.48-.641-7.486-.951-2-.293 5.16-.358 5.284-1.049 2-.608-2.886-.791-2.185-1.049 4l-.311 7.5-.64-7.5c-.638-7.48-.641-7.486-.951-2-.293 5.16-.358 5.284-1.049 2-.608-2.886-.791-2.185-1.049 4l-.311 7.5-.64-7.5c-.638-7.48-.641-7.486-.951-2-.293 5.16-.358 5.284-1.049 2-.608-2.886-.791-2.185-1.049 4l-.311 7.5-.64-7.5c-.638-7.48-.641-7.486-.951-2-.293 5.16-.358 5.284-1.049 2-.689-3.275-.756-3.147-1.031 2l-.295 5.5L240 122l-.674-5.5-.295 5.5c-.275 5.147-.342 5.275-1.031 2-.689-3.275-.756-3.147-1.031 2l-.295 5.5L236 126l-.674-5.5-.295 5.5c-.275 5.147-.342 5.275-1.031 2-.689-3.275-.756-3.147-1.031 2l-.295 5.5L232 130l-.674-5.5-.295 5.5c-.275 5.147-.342 5.275-1.031 2-.691-3.284-.756-3.16-1.049 2-.31 5.486-.313 5.48-.951-2l-.64-7.5-.311 7.5c-.258 6.185-.441 6.886-1.049 4-.691-3.284-.756-3.16-1.049 2-.31 5.486-.313 5.48-.951-2l-.64-7.5-.311 7.5c-.258 6.185-.441 6.886-1.049 4-.691-3.284-.756-3.16-1.049 2-.31 5.486-.313 5.48-.951-2l-.64-7.5-.311 7.5c-.258 6.185-.441 6.886-1.049 4-.691-3.284-.756-3.16-1.049 2-.31 5.486-.313 5.48-.951-2l-.64-7.5-.311 7.5c-.258 6.185-.441 6.886-1.049 4-.691-3.284-.756-3.16-1.049 2-.31 5.486-.313 5.48-.951-2-.61-7.156-.649-7.248-.835-2-.141 3.966-.466 5.082-1.165 4-.699-1.082-1.024.034-1.165 4-.186 5.248-.225 5.156-.835-2s-.649-7.248-.835-2c-.141 3.966-.466 5.082-1.165 4-.699-1.082-1.024.034-1.165 4-.186 5.248-.225 5.156-.835-2s-.649-7.248-.835-2c-.141 3.966-.466 5.082-1.165 4-.699-1.082-1.024.034-1.165 4-.186 5.248-.225 5.156-.835-2s-.649-7.248-.835-2c-.141 3.966-.466 5.082-1.165 4-.699-1.082-1.024.034-1.165 4-.186 5.248-.225 5.156-.835-2s-.649-7.248-.835-2c-.141 3.966-.466 5.082-1.165 4-.699-1.082-1.024.034-1.165 4-.186 5.248-.225 5.156-.835-2s-.649-7.248-.835-2c-.141 3.966-.466 5.082-1.165 4-.699-1.082-1.024.034-1.165 4-.186 5.248-.225 5.156-.835-2s-.649-7.248-.835-2c-.141 3.966-.466 5.082-1.165 4-.699-1.082-1.024.034-1.165 4-.186 5.248-.225 5.156-.835-2s-.649-7.248-.835-2c-.141 3.966-.466 5.082-1.165 4-.699-1.082-1.024.034-1.165 4-.186 5.248-.225 5.156-.835-2-.638-7.48-.641-7.486-.951-2-.293 5.16-.358 5.284-1.049 2-.608-2.886-.791-2.185-1.049 4l-.311 7.5-.64-7.5c-.638-7.48-.641-7.486-.951-2-.293 5.16-.358 5.284-1.049 2-.608-2.886-.791-2.185-1.049 4l-.311 7.5-.64-7.5c-.638-7.48-.641-7.486-.951-2-.293 5.16-.358 5.284-1.049 2-.608-2.886-.791-2.185-1.049 4l-.311 7.5-.64-7.5c-.638-7.48-.641-7.486-.951-2-.293 5.16-.358 5.284-1.049 2-.608-2.886-.791-2.185-1.049 4l-.311 7.5-.64-7.5c-.638-7.48-.641-7.486-.951-2-.293 5.16-.358 5.284-1.049 2-.689-3.275-.756-3.147-1.031 2l-.295 5.5L160 198l-.674-5.5-.295 5.5c-.275 5.147-.342 5.275-1.031 2-.689-3.275-.756-3.147-1.031 2l-.295 5.5L156 202l-.674-5.5-.295 5.5c-.275 5.147-.342 5.275-1.031 2-.691-3.284-.756-3.16-1.049 2-.31 5.486-.313 5.48-.951-2l-.64-7.5-.311 7.5c-.258 6.185-.441 6.886-1.049 4-.691-3.284-.756-3.16-1.049 2-.31 5.486-.313 5.48-.951-2l-.64-7.5-.311 7.5c-.258 6.185-.441 6.886-1.049 4-.691-3.284-.756-3.16-1.049 2-.31 5.486-.313 5.48-.951-2l-.64-7.5-.311 7.5c-.258 6.185-.441 6.886-1.049 4-.691-3.284-.756-3.16-1.049 2-.31 5.486-.313 5.48-.951-2l-.64-7.5-.311 7.5c-.258 6.185-.441 6.886-1.049 4-.691-3.284-.756-3.16-1.049 2-.31 5.486-.313 5.48-.951-2-.61-7.156-.649-7.248-.835-2-.141 3.966-.466 5.082-1.165 4-.699-1.082-1.024.034-1.165 4-.186 5.248-.225 5.156-.835-2s-.649-7.248-.835-2c-.141 3.966-.466 5.082-1.165 4-.699-1.082-1.024.034-1.165 4-.186 5.248-.225 5.156-.835-2s-.649-7.248-.835-2c-.141 3.966-.466 5.082-1.165 4-.699-1.082-1.024.034-1.165 4-.186 5.248-.225 5.156-.835-2s-.649-7.248-.835-2c-.141 3.966-.466 5.082-1.165 4-.699-1.082-1.024.034-1.165 4-.186 5.248-.225 5.156-.835-2s-.649-7.248-.835-2c-.141 3.966-.466 5.082-1.165 4-.699-1.082-1.024.034-1.165 4-.186 5.248-.225 5.156-.835-2s-.649-7.248-.835-2c-.141 3.966-.466 5.082-1.165 4-.699-1.082-1.024.034-1.165 4-.186 5.248-.225 5.156-.835-2s-.649-7.248-.835-2c-.141 3.966-.466 5.082-1.165 4-.699-1.082-1.024.034-1.165 4-.186 5.248-.225 5.156-.835-2s-.649-7.248-.835-2c-.141 3.966-.466 5.082-1.165 4-.699-1.082-1.024.034-1.165 4-.186 5.248-.225 5.156-.835-2-.638-7.48-.641-7.486-.951-2-.293 5.16-.358 5.284-1.049 2-.608-2.886-.791-2.185-1.049 4l-.311 7.5-.64-7.5c-.638-7.48-.641-7.486-.951-2-.293 5.16-.358 5.284-1.049 2-.608-2.886-.791-2.185-1.049 4l-.311 7.5L96 260c-.638-7.48-.641-7.486-.951-2-.293 5.16-.358 5.284-1.049 2-.608-2.886-.791-2.185-1.049 4l-.311 7.5L92 264c-.638-7.48-.641-7.486-.951-2-.293 5.16-.358 5.284-1.049 2-.608-2.886-.791-2.185-1.049 4l-.311 7.5L88 268c-.638-7.48-.641-7.486-.951-2-.293 5.16-.358 5.284-1.049 2-.689-3.275-.756-3.147-1.031 2l-.295 5.5L84 270l-.674-5.5-.295 5.5c-.275 5.147-.342 5.275-1.031 2-.689-3.275-.756-3.147-1.031 2l-.295 5.5L80 274l-.674-5.5-.295 5.5c-.275 5.147-.342 5.275-1.031 2-.691-3.284-.756-3.16-1.049 2-.31 5.486-.313 5.48-.951-2l-.64-7.5-.311 7.5c-.258 6.185-.441 6.886-1.049 4-.691-3.284-.756-3.16-1.049 2-.31 5.486-.313 5.48-.951-2l-.64-7.5-.311 7.5c-.258 6.185-.441 6.886-1.049 4-.691-3.284-.756-3.16-1.049 2-.31 5.486-.313 5.48-.951-2l-.64-7.5-.311 7.5c-.258 6.185-.441 6.886-1.049 4-.691-3.284-.756-3.16-1.049 2-.31 5.486-.313 5.48-.951-2l-.64-7.5-.311 7.5c-.258 6.185-.441 6.886-1.049 4-.691-3.284-.756-3.16-1.049 2-.31 5.486-.313 5.48-.951-2-.61-7.156-.649-7.248-.835-2-.141 3.966-.466 5.082-1.165 4-.699-1.082-1.024.034-1.165 4-.186 5.248-.225 5.156-.835-2s-.649-7.248-.835-2c-.141 3.966-.466 5.082-1.165 4-.699-1.082-1.024.034-1.165 4-.186 5.248-.225 5.156-.835-2s-.649-7.248-.835-2c-.141 3.966-.466 5.082-1.165 4-.699-1.082-1.024.034-1.165 4-.186 5.248-.225 5.156-.835-2s-.649-7.248-.835-2c-.141 3.966-.466 5.082-1.165 4-.699-1.082-1.024.034-1.165 4-.186 5.248-.225 5.156-.835-2s-.649-7.248-.835-2c-.141 3.966-.466 5.082-1.165 4-.699-1.082-1.024.034-1.165 4-.186 5.248-.225 5.156-.835-2s-.649-7.248-.835-2c-.141 3.966-.466 5.082-1.165 4-.699-1.082-1.024.034-1.165 4-.186 5.248-.225 5.156-.835-2s-.649-7.248-.835-2c-.141 3.966-.466 5.082-1.165 4-.699-1.082-1.024.034-1.165 4-.186 5.248-.225 5.156-.835-2s-.649-7.248-.835-2c-.141 3.966-.466 5.082-1.165 4-.699-1.082-1.024.034-1.165 4-.186 5.248-.225 5.156-.835-2-.638-7.48-.641-7.486-.951-2-.293 5.16-.358 5.284-1.049 2-.608-2.886-.791-2.185-1.049 4l-.311 7.5L24 328c-.638-7.48-.641-7.486-.951-2-.293 5.16-.358 5.284-1.049 2-.608-2.886-.791-2.185-1.049 4l-.311 7.5L20 332c-.638-7.48-.641-7.486-.951-2-.293 5.16-.358 5.284-1.049 2-.608-2.886-.791-2.185-1.049 4l-.311 7.5L16 336c-.638-7.48-.641-7.486-.951-2-.293 5.16-.358 5.284-1.049 2-.608-2.886-.791-2.185-1.049 4l-.311 7.5L12 340c-.638-7.48-.641-7.486-.951-2-.293 5.16-.358 5.284-1.049 2-.608-2.886-.791-2.185-1.049 4l-.311 7.5L8 344c-.638-7.48-.641-7.486-.951-2-.293 5.16-.358 5.284-1.049 2-.689-3.275-.756-3.147-1.031 2l-.295 5.5L4 346l-.674-5.5-.295 5.5c-.27 5.052-.35 5.215-.977 2-.627-3.217-.726-3.015-1.226 2.5-1.08 11.923-.881 725.562.205 736.947 7.726 80.969 70.6 143.84 151.52 151.513 15.24 1.445 919.654 1.445 934.894 0 58.199-5.519 108.388-39.719 134.359-91.557 9.048-18.061 15.552-40.222 16.791-57.221.308-4.225 1.04-8.675 1.627-9.888 1.499-3.1.307-913.496-1.215-928.222-8.387-81.112-70.824-143.334-151.562-151.039C1080.068.329 961.858-.001 724.75.021c-332.234.03-351.754.128-351.82 1.755-.059 1.444-.21 1.399-.93-.276l-.859-2-.141 2-.141 2-.859-2c-.69-1.606-.901-1.212-1.072 2l-.212 4-.716-4c-.394-2.2-.787-3.1-.873-2-.132 1.669-.318 1.752-1.127.5-.699-1.081-1.021.036-1.153 4l-.183 5.5-.664-6c-.55-4.968-.695-5.312-.847-2m2.926 2.083c.048 1.165.285 1.402.604.605.289-.722.253-1.585-.079-1.917-.332-.332-.568.258-.525 1.312m-25 17c.048 1.165.285 1.402.604.605.289-.722.253-1.585-.079-1.917-.332-.332-.568.258-.525 1.312m-4 4c.048 1.165.285 1.402.604.605.289-.722.253-1.585-.079-1.917-.332-.332-.568.258-.525 1.312m-26 20c.048 1.165.285 1.402.604.605.289-.722.253-1.585-.079-1.917-.332-.332-.568.258-.525 1.312m5 11c.048 1.165.285 1.402.604.605.289-.722.253-1.585-.079-1.917-.332-.332-.568.258-.525 1.312m-4 4c.048 1.165.285 1.402.604.605.289-.722.253-1.585-.079-1.917-.332-.332-.568.258-.525 1.312m-22 16c.048 1.165.285 1.402.604.605.289-.722.253-1.585-.079-1.917-.332-.332-.568.258-.525 1.312m-4 4c.048 1.165.285 1.402.604.605.289-.722.253-1.585-.079-1.917-.332-.332-.568.258-.525 1.312m-25 17c.048 1.165.285 1.402.604.605.289-.722.253-1.585-.079-1.917-.332-.332-.568.258-.525 1.312m-26 20c.048 1.165.285 1.402.604.605.289-.722.253-1.585-.079-1.917-.332-.332-.568.258-.525 1.312m-4 4c.048 1.165.285 1.402.604.605.289-.722.253-1.585-.079-1.917-.332-.332-.568.258-.525 1.312m9 7c.048 1.165.285 1.402.604.605.289-.722.253-1.585-.079-1.917-.332-.332-.568.258-.525 1.312m-4 4c.048 1.165.285 1.402.604.605.289-.722.253-1.585-.079-1.917-.332-.332-.568.258-.525 1.312m-26 20c.048 1.165.285 1.402.604.605.289-.722.253-1.585-.079-1.917-.332-.332-.568.258-.525 1.312m-25 17c.048 1.165.285 1.402.604.605.289-.722.253-1.585-.079-1.917-.332-.332-.568.258-.525 1.312m-4 4c.048 1.165.285 1.402.604.605.289-.722.253-1.585-.079-1.917-.332-.332-.568.258-.525 1.312M572.5 176.95c-13.337 1.4-40.03 5.181-46.5 6.586-40.934 8.89-70.1 17.925-93.688 29.023-2.854 1.343-5.493 2.441-5.866 2.441-.872 0-26.847 13.003-33.141 16.59-13.152 7.497-24.341 14.608-44.646 28.374-11.555 7.833-36.005 28.49-51.531 43.536-18.709 18.13-41.372 44.633-53.128 62.129-14.896 22.169-17.097 25.606-22.971 35.871-6.072 10.612-19.96 38.65-23.032 46.5-1.184 3.025-2.777 6.85-3.54 8.5-7.122 15.405-18.438 53.436-23.06 77.5a6556.21 6556.21 0 01-3.871 20c-6.78 34.57-6.532 103.683.508 141.5 7.977 42.851 13.95 63.813 28.353 99.5 5.155 12.775 20.887 44.693 25.76 52.264a465.129 465.129 0 015.262 8.446c20.25 33.347 49.254 69.054 76.723 94.452 27.766 25.672 55.278 45.796 87.67 64.129 15.218 8.613 49.257 24.411 59.698 27.707 2.2.694 4.45 1.585 5 1.978 1.212.868 23.045 7.789 37.5 11.888 9.969 2.827 28.567 6.814 45 9.647 28.931 4.989 82.703 6.464 115.5 3.169 54.472-5.474 104.243-19.723 152.5-43.662 7.425-3.684 15.002-7.557 16.838-8.608 18.061-10.336 23.122-13.386 33.662-20.288 3.696-2.421 14.685-10.106 17-11.89.55-.423 3.925-3.006 7.5-5.739 27.717-21.19 59.099-52.128 79-77.882 2.475-3.203 4.964-6.338 5.531-6.967 1.58-1.754 16.574-23.386 20.893-30.144 2.109-3.3 4.852-7.575 6.094-9.5 3.76-5.825 18.276-33.258 22.035-41.641 1.938-4.322 3.89-8.534 4.336-9.359.447-.825 2.429-5.55 4.406-10.5 8.863-22.204 13.969-37.776 18.851-57.5 1.565-6.325 3.284-12.85 3.819-14.5.535-1.65 2.108-10.2 3.495-19s2.965-18.25 3.508-21c2.303-11.678 3.279-36.65 2.657-68-.349-17.6-1.054-34.925-1.567-38.5-2.356-16.425-6.016-38.872-6.929-42.5-.554-2.2-2.161-8.95-3.57-15-6.598-28.326-19.95-64.657-33.896-92.232-2.29-4.527-4.775-9.477-5.522-11-1.431-2.916-7.41-13.349-12.474-21.768-3.414-5.676-17.889-27.739-18.699-28.5-.292-.275-3.411-4.325-6.931-9-25.936-34.446-62.193-70.026-95.233-93.455-26.82-19.017-57.375-36.573-81.304-46.712-16.642-7.052-28.81-11.838-32.758-12.886-2.333-.62-5.606-1.766-7.274-2.547-8.941-4.189-48.805-13.737-70.468-16.877-9.075-1.316-19.425-2.917-23-3.559-7.519-1.351-73.728-2.145-84.5-1.014m-413.421 13.633c.048 1.165.285 1.402.604.605.289-.722.253-1.585-.079-1.917-.332-.332-.568.258-.525 1.312m-4 4c.048 1.165.285 1.402.604.605.289-.722.253-1.585-.079-1.917-.332-.332-.568.258-.525 1.312m5 11c.048 1.165.285 1.402.604.605.289-.722.253-1.585-.079-1.917-.332-.332-.568.258-.525 1.312m-26 20c.048 1.165.285 1.402.604.605.289-.722.253-1.585-.079-1.917-.332-.332-.568.258-.525 1.312m-4 4c.048 1.165.285 1.402.604.605.289-.722.253-1.585-.079-1.917-.332-.332-.568.258-.525 1.312m459.421 2.532c-24.13.964-57.588 5.833-74.5 10.842-3.575 1.059-9.425 2.629-13 3.489-3.575.86-8.075 2.208-10 2.995-1.925.788-6.875 2.536-11 3.885-8.425 2.755-19.774 7.11-28 10.744-9.404 4.155-35.671 17.706-42.752 22.056A1111.21 1111.21 0 01400 292.354c-8.058 4.793-28.172 19.318-37.5 27.08-41.987 34.94-73.418 73.18-98.688 120.066-6.537 12.129-14.941 29.904-16.311 34.5-.41 1.375-1.099 2.95-1.531 3.5-.688.876-4.189 10.398-8.455 23-7.914 23.378-14.12 51.997-17.133 79-2.19 19.626-2.993 60.322-1.45 73.5 3.748 32.031 5.235 42.636 7.023 50.113 5.817 24.324 11.672 45.651 13.01 47.387.424.55 1.566 3.475 2.539 6.5 5.356 16.652 21.292 50.612 30.972 66 1.211 1.925 4.17 6.65 6.575 10.5 2.405 3.85 5.197 8.125 6.205 9.5l9.582 13.087c18.137 24.776 45.103 53.282 66.137 69.913a434.71 434.71 0 017.476 6.052c2.959 2.477 11.639 8.901 16.145 11.948 29.745 20.116 44.777 28.418 74.904 41.368 32.6 14.013 74.387 24.297 117 28.792 14.328 1.512 69.414.489 81-1.505 4.95-.851 14.877-2.479 22.061-3.617 7.183-1.138 14.383-2.517 16-3.064 1.616-.547 8.114-2.285 14.439-3.863 16.541-4.125 37.44-11.006 47.5-15.639 1.65-.759 5.25-2.258 8-3.331 4.69-1.829 33.217-16.003 36.5-18.135.825-.536 5.775-3.532 11-6.659 35.889-21.476 77.299-57.528 101-87.933 7.959-10.211 11.816-15.245 13.044-17.026 11.414-16.559 16.774-24.748 20.997-32.085 2.787-4.842 5.722-9.928 6.523-11.303 3.743-6.43 15.874-32.157 17.988-38.146.756-2.143 2.062-5.349 2.903-7.125 2.152-4.547 7.116-19.399 10.512-31.451 1.584-5.622 3.094-10.572 3.357-11 .262-.428 1.451-5.728 2.641-11.778 1.191-6.05 2.789-13.7 3.551-17 6.741-29.205 7.54-98.091 1.537-132.5-1.939-11.109-7.169-35.349-7.962-36.901-.449-.88-1.625-4.974-2.613-9.099-7.015-29.285-27.254-73.194-49.319-107-20.535-31.462-56.787-71.412-81.273-89.562-1.437-1.066-7.062-5.346-12.5-9.512-10.413-7.977-22.205-15.807-37.957-25.205-13.251-7.906-44.409-22.776-53.929-25.737-2.2-.685-4.45-1.582-5-1.994-1.235-.924-26.656-8.97-39.408-12.472-20.147-5.532-51.302-10.267-72.592-11.031-8.25-.296-17.475-.672-20.5-.835-3.025-.163-14.05.046-24.5.463m-484.421 14.468c.048 1.165.285 1.402.604.605.289-.722.253-1.585-.079-1.917-.332-.332-.568.258-.525 1.312m480.794 6.402c-13.075.863-39.827 3.868-41.026 4.609-.375.233-7.246 1.743-15.267 3.357-8.021 1.613-15.046 3.219-15.61 3.568-.565.349-5.626 1.92-11.248 3.491-9.488 2.653-24.564 7.788-29.222 9.954-1.1.512-5.375 2.305-9.5 3.984-10.803 4.4-36.795 17.705-46 23.547-22.488 14.275-33.127 22.034-49.5 36.1-13.424 11.533-35.047 33.128-41.96 41.905-2.166 2.75-4.412 5.45-4.991 6-4.312 4.092-26.337 35.928-32.453 46.906-8.826 15.846-16.958 31.837-19.118 37.594-.722 1.925-1.667 3.971-2.099 4.547-2.282 3.038-14.003 38.11-18.031 53.953-3.951 15.537-4.419 17.911-6.838 34.668-1.115 7.728-2.231 14.38-2.479 14.781-.248.402-.906 9.917-1.463 21.146-1.054 21.248-.046 54.719 1.94 64.405.564 2.75 2.139 11.975 3.499 20.5 9.418 59.004 39.269 124.391 77.409 169.56a747.857 747.857 0 016.584 7.969c11.874 14.575 39.234 39.88 62.505 57.811 3.291 2.536 24.908 16.688 31.495 20.619 3.85 2.297 14.65 7.931 24 12.519 24.116 11.834 42.35 18.84 63.615 24.441 5.838 1.538 11.047 3.063 11.575 3.39 1.106.683 32.441 6.369 42.668 7.742 22.223 2.984 68.382 3.021 90.642.073 14.01-1.856 37.116-6.398 49.414-9.715 12.867-3.47 32.285-9.608 36.086-11.407 1.1-.521 4.475-1.875 7.5-3.01 7.902-2.965 15.593-6.528 31.498-14.591 12.677-6.426 17.297-9.073 30.002-17.187 46.86-29.927 87.433-71.269 116.999-119.214 10.242-16.609 18.544-32.928 26.2-51.5 7.666-18.596 9.066-22.407 11.378-31 1.185-4.4 2.505-8.675 2.934-9.5 1.045-2.009 6.895-27.487 8.61-37.5 2.985-17.426 5.379-45.898 5.379-63.97 0-18.195-2.674-49.997-5.467-65.03-2.294-12.344-7.473-34.935-8.482-37-.538-1.1-2.101-5.825-3.474-10.5-2.84-9.67-7.795-23.585-10.507-29.5-1.008-2.2-3.99-8.725-6.627-14.5-24.917-54.577-64.457-103.084-115.509-141.707-5.812-4.396-12.562-9.224-15-10.729a775.638 775.638 0 01-10.434-6.602c-5.649-3.64-33.2-18.962-34.096-18.962-.227 0-2.774-1.153-5.659-2.562-9.033-4.413-21.71-9.39-36.745-14.428-22.217-7.444-26.486-8.66-40.5-11.536l-17-3.488c-16.184-3.314-62.928-5.498-85.627-4.001M79.079 266.583c.048 1.165.285 1.402.604.605.289-.722.253-1.585-.079-1.917-.332-.332-.568.258-.525 1.312m5 11c.048 1.165.285 1.402.604.605.289-.722.253-1.585-.079-1.917-.332-.332-.568.258-.525 1.312m-4 4c.048 1.165.285 1.402.604.605.289-.722.253-1.585-.079-1.917-.332-.332-.568.258-.525 1.312m-22 16c.048 1.165.285 1.402.604.605.289-.722.253-1.585-.079-1.917-.332-.332-.568.258-.525 1.312m-4 4c.048 1.165.285 1.402.604.605.289-.722.253-1.585-.079-1.917-.332-.332-.568.258-.525 1.312m-25 17c.048 1.165.285 1.402.604.605.289-.722.253-1.585-.079-1.917-.332-.332-.568.258-.525 1.312m-26 20c.048 1.165.285 1.402.604.605.289-.722.253-1.585-.079-1.917-.332-.332-.568.258-.525 1.312m1 15c.048 1.165.285 1.402.604.605.289-.722.253-1.585-.079-1.917-.332-.332-.568.258-.525 1.312M.495 723c0 197.175.114 277.838.255 179.25.14-98.587.14-259.912 0-358.5C.609 445.163.495 525.825.495 723M602.67 410.44c-12.046 4.401-17.308 8.843-22.581 19.06-3.792 7.349-7.207 22.198-16.557 72-1.343 7.15-3.148 15.925-4.012 19.5-1.891 7.822-6.575 32.496-6.835 36l-.185 2.5 13 .593c11.592.529 25.25 2.903 28 4.866.55.393 3.7 1.775 7 3.072 5.413 2.128 13.11 6.1 22.317 11.517 6.077 3.576 18.873 12.864 28.332 20.566 9.724 7.917 34.169 32.453 38.096 38.237 12.591 18.548 18.711 30.29 19.063 36.575l.192 3.427-10 1.769c-5.5.972-13.375 2.492-17.5 3.376-32.608 6.99-110.127 13.465-138 11.527-31.457-2.187-36.227-5.549-37.723-26.581l-.777-10.925-5-1.651c-17.931-5.921-30.511-9.796-33.75-10.396-3.231-.598-3.756-.437-3.794 1.167-.024 1.023-.715 3.661-1.536 5.861-4.562 12.23-15.922 56.915-19.448 76.5-2.416 13.425-2.97 19.26-2.971 31.31-.002 31.372 8.276 51.699 25.901 63.603 6.382 4.31 19.856 9.545 28.374 11.025 25.428 4.418 87.235 3.715 126.224-1.435 28.969-3.827 47.62-6.592 54-8.005 3.85-.853 12.175-2.618 18.5-3.922 22.512-4.642 41.926-10.384 51.033-15.093 2.813-1.455 4.584-4.546 12.024-20.983 12.701-28.059 22.225-59.473 25.468-84 3.124-23.622 2.085-55.714-2.482-76.712-5.146-23.658-14.271-50.679-23.481-69.533-1.409-2.885-2.562-5.45-2.562-5.7 0-.652-12.817-24.382-15.424-28.555-25.419-40.698-47.325-65.986-81.076-93.588-14.678-12.004-27.265-18.219-38.5-19.01-5.225-.368-7.84.032-13.33 2.038m1.625 15.048c-10.19 5.18-13.429 11.652-17.843 35.654-1.35 7.347-3.333 17.408-4.405 22.358-3.658 16.884-12.096 60.786-11.75 61.128.112.109 3.578.674 7.703 1.254 19.361 2.721 45.577 15.094 69.943 33.01 19.264 14.164 42.49 36.683 54.421 52.765 12.421 16.743 21.024 35.629 22.312 48.982.549 5.691.418 6.252-1.792 7.688-8.677 5.635-76.778 16.66-127.884 20.702-17.993 1.423-54.513 1.406-65.043-.031-25.906-3.535-36.799-13.183-38.877-34.436l-.58-5.938-8-2.753c-4.4-1.515-8.45-2.779-9-2.811-3.073-.176-18.832 65.701-20.332 84.992-1.731 22.276 1.617 43.138 8.54 53.215 5.598 8.149 16.015 15.016 26.792 17.661 8.38 2.057 26.346 3.952 44.119 4.653 45.969 1.812 131.557-8.804 179.381-22.251 20.216-5.685 21.576-6.454 25.146-14.228 13.081-28.488 21.519-53.332 26.087-76.809 3.125-16.063 3.265-17.793 3.211-39.793-.05-20.812-.315-24.332-2.781-37-3.232-16.603-8.389-34.83-14.148-50-3.867-10.186-13.696-32.011-17.564-39-25.101-45.351-51.712-77.748-86.951-105.855-18.615-14.847-30.086-18.555-40.705-13.157" fill="undefined" fill-rule="evenodd"/></svg>