<svg enable-background="new 0 0 100 100" height="512" viewBox="0 0 100 100" width="512" xmlns="http://www.w3.org/2000/svg"><circle cx="50" cy="56.114" fill="#feed32" r="34.75"/><circle cx="50" cy="56.114" fill="#efba1b" r="25.462"/><path d="m48.6261978 74.5530319v-2.8047256c-2.6483269-.1506882-4.6409035-.9915771-5.9789543-2.5234451-1.3384628-1.5318604-2.0076942-3.7398758-2.0076942-6.6255913v-.8002853h5.21698c0 .1093063-.0073547.2740479-.0212479.4926643-.0147057.2186127-.0216522.3763275-.0216522.4715805 0 1.4498901.2430954 2.5640411.7301064 3.3432465.4861946.7799911 1.2448997 1.2585983 2.2757149 1.436615v-9.3137779c-2.8199234-1.4764328-4.8304787-2.9708214-6.0328865-4.4816055-1.2024117-1.510788-1.8034096-3.2854729-1.8034096-5.3232765 0-2.3657227.6761742-4.2528381 2.0289383-5.6621246 1.3523521-1.4077263 3.2235832-2.1674118 5.6141052-2.2767181v-2.8099863h2.4260635v2.8513641c2.4612007.0273285 4.3365211.6839523 5.6247292 1.9690971 1.2877998 1.2851448 1.932106 3.1519585 1.932106 5.5996666v.594944h-5.0882797v-.4302025c0-1.1625633-.2324753-2.0721588-.697422-2.7287827-.4653549-.6558456-1.1133423-1.0048485-1.9431381-1.0462303v8.3901291c3.2632141 1.6138496 5.4923515 3.1527405 6.6874084 4.6158981 1.1950531 1.4631615 1.7927856 3.2885971 1.7927856 5.4770889 0 2.6936493-.7121315 4.793129-2.1359825 6.2968903-1.4242592 1.5045395-3.4818001 2.3321533-6.1722069 2.4828415v2.8047256h-2.4260636zm.1932526-22.8056526-.021656-7.3025208c-.830204.0687103-1.4671593.3935089-1.910862.9743996s-.6651459 1.3780556-.6651459 2.3899307c0 .7659302.2108192 1.4733086.6332779 2.1229057.4220467.6495972 1.0765686 1.2546922 1.964386 1.8152848zm2.0608063 15.7957115c.9589043-.1647415 1.6886024-.5644989 2.1899109-1.2000427.5009041-.636322.7513542-1.4803314.7513542-2.5335884 0-1.0392036-.2144966-1.8941422-.643898-2.5640411-.4294052-.669899-1.1954651-1.34058-2.2973671-2.0104752z" fill="#e6e7e8"/><g fill="#ffcb08"><circle cx="50" cy="26.008" r="1.799"/><circle cx="50" cy="86.22" r="1.799"/><circle cx="34.947" cy="30.042" r="1.799"/><circle cx="65.053" cy="82.187" r="1.799"/><circle cx="23.928" cy="41.061" r="1.799"/><circle cx="76.072" cy="71.167" r="1.799"/><circle cx="19.894" cy="56.114" r="1.799"/><circle cx="80.106" cy="56.114" r="1.799"/><circle cx="23.928" cy="71.167" r="1.799"/><circle cx="76.072" cy="41.061" r="1.799"/><circle cx="34.947" cy="82.187" r="1.799"/><circle cx="65.053" cy="30.042" r="1.799"/></g><path d="m50.0224533 50.1425247c5.9100266-4.6595497 16.6806793-8.5244942 30.3212662-10.9796295v-17.593996h-60.6874428v17.593317c13.6469078 2.4551391 24.4299736 6.3205337 30.3661766 10.9803085z" fill="#344e5c"/><path d="m50.0002289 9.1361094-46.6323846 12.4327898 46.6323846 12.4327869 46.6319275-12.4327869z" fill="#304651"/><path d="m88.7237244 41.9872398c-.5109329 0-.9243774-.4134407-.9243774-.9243736v-18.5695953h-35.1306649c-.5109329 0-.9243736-.4134407-.9243736-.9243717 0-.5109329.4134407-.9243736.9243736-.9243736h36.0550423c.5109253 0 .9243698.4134407.9243698.9243736v19.4939671c0 .5109328-.4134445.9243735-.9243698.9243735z" fill="#ececec"/><path d="m91.5753708 46.9596405h-5.8510132l1.5495682-10.2595291h2.7518844z" fill="#ffd25a"/><circle cx="88.65" cy="35.677" fill="#d6b251" r="3.836"/><path d="m80.3308716 39.1651421c-13.6344605 2.4553222-24.4005127 6.3193359-30.3086548 10.9772949-5.9343262-4.6582031-16.7125244-8.5227051-30.3532104-10.9777832-.3412476.609375-.6728516 1.2248535-.9777222 1.8562012l.6102905.1101074c13.3867188 2.4082031 23.8583984 6.1669922 29.4853516 10.5849609l1.2382812.9716797 1.2353516-.9746094c5.5986328-4.4150391 16.0537109-8.1728516 29.4375-10.5810547l.6106567-.1101074c-.3049316-.6313476-.6365356-1.2470703-.9778442-1.8566894z" fill="#19282f" opacity=".1"/></svg>