<?xml version="1.0" encoding="iso-8859-1"?>
<!-- Generator: Adobe Illustrator 19.0.0, SVG Export Plug-In . SVG Version: 6.00 Build 0)  -->
<svg version="1.1" id="Capa_1" xmlns="http://www.w3.org/2000/svg" xmlns:xlink="http://www.w3.org/1999/xlink" x="0px" y="0px"
	 viewBox="0 0 512.001 512.001" style="enable-background:new 0 0 512.001 512.001;" xml:space="preserve">
<path style="fill:#FEC007;" d="M328.267,88.861H302.18v89.783h-92.361V88.861h-26.087c-7.392,0-11.093-8.937-5.867-14.163
	L250.133,2.43c3.24-3.24,8.493-3.24,11.733,0l72.267,72.267C339.361,79.924,335.659,88.861,328.267,88.861z"/>
<path style="fill:#FF9700;" d="M302.181,129.417v49.226H209.82v-69.6c3.449-2.25,7.523-3.502,11.789-3.502
	c4.711,0,9.359,1.57,13.105,4.446c11.97,9.168,21.106,10.601,36.238,12.978C279.557,124.313,289.829,125.916,302.181,129.417z"/>
<path style="fill:#50B8FF;" d="M354.68,435.431v70.886c0,3.142-2.551,5.683-5.683,5.683H163.512c-3.142,0-5.683-2.541-5.683-5.683
	v-70.886c0-22.495,7.55-43.226,20.254-59.799c9.064-11.833,20.763-21.551,34.214-28.271c13.233-6.627,28.157-10.35,43.952-10.35
	c15.805,0,30.729,3.723,43.962,10.34c9.531,4.76,18.191,11.035,25.637,18.491c3.07,3.07,5.943,6.337,8.577,9.79
	C347.13,392.205,354.68,412.937,354.68,435.431z"/>
<g>
	<path style="fill:#2195F2;" d="M354.677,435.431v70.884c0,3.14-2.546,5.686-5.686,5.686h-7.275v-76.569
		c0-22.499-7.55-43.23-20.255-59.798c-2.631-3.458-5.499-6.723-8.57-9.793c-7.453-7.453-16.111-13.726-25.64-18.487
		c-11.412-5.702-24.074-9.257-37.475-10.119c2.138-0.15,4.303-0.22,6.476-0.22c15.803,0,30.726,3.722,43.96,10.339
		c9.529,4.76,18.188,11.034,25.64,18.487c3.071,3.071,5.939,6.335,8.57,9.793C347.128,392.201,354.677,412.932,354.677,435.431z"/>
	<path style="fill:#2195F2;" d="M334.422,375.633c-0.977,1.496-2.129,2.904-3.44,4.215l-43.291,43.3
		c-5.042,5.042-13.225,5.042-18.267,0l-13.172-13.172l-13.163,13.172c-5.051,5.042-13.225,5.042-18.267,0l-43.3-43.3
		c-1.311-1.311-2.464-2.719-3.44-4.215c9.063-11.835,20.766-21.549,34.219-28.271c13.225-6.626,28.157-10.348,43.951-10.348
		c15.803,0,30.726,3.722,43.96,10.339c9.529,4.76,18.188,11.034,25.64,18.487C328.922,368.91,331.791,372.175,334.422,375.633z"/>
</g>
<path style="fill:#E59351;" d="M300.211,347.353l-43.96,43.96L212.3,347.361c13.225-6.626,28.157-10.348,43.951-10.348
	C272.054,337.014,286.977,340.736,300.211,347.353z"/>
<path style="fill:#FBCB99;" d="M344.723,262.328c0,48.861-39.613,88.465-88.465,88.465c-48.861,0-88.474-39.604-88.474-88.465
	c0-2.965,0.15-5.895,0.431-8.781c4.408-44.743,42.147-79.693,88.043-79.693c46.784,0,85.095,36.322,88.254,82.315
	C344.653,258.201,344.723,260.26,344.723,262.328z"/>
<path style="fill:#EAA96E;" d="M344.512,256.168c-22.024,12.16-45.218,18.311-69.002,18.311c-27.233,0-45.509-8.385-46.274-8.738
	l-3.877-1.81c-4.467-2.085-6.395-7.398-4.306-11.863l0,0c-10.902,2.235-21.39,3.352-31.395,3.352
	c-8.139,0-15.275-0.739-21.443-1.874c4.408-44.743,42.147-79.693,88.043-79.693C303.042,173.853,341.353,210.176,344.512,256.168z"
	/>
<path style="fill:#563939;" d="M151.26,234.35c11.053,5.544,41.609,15.845,93.977-2.801l-6.522,13.923
	c-2.171,4.635,0.316,10.106,5.236,11.515c16.874,4.832,55.196,10.899,98.462-14.818c0,0,18-76.317-35.177-94.502
	c-38.834-13.28-56.695-5.489-82.214-25.054c-2.755-2.112-6.742-1.241-8.415,1.801c-3.068,5.578-6.461,14.617-3.424,23.987
	c0,0-62.493,12.972-66.488,78.111C146.495,229.797,148.317,232.874,151.26,234.35z"/>
<path style="fill:#694B4B;" d="M342.411,242.169c-5.262,3.124-10.444,5.781-15.53,8.025c6.972-33.867,7.558-85.782-28.958-91.501
	c-41.878-6.559-62.288-5.851-84.787-25.878c0.896-3.222,2.201-6.081,3.454-8.364c1.678-3.057,5.669-3.955,8.437-1.834
	c25.518,19.558,43.379,11.771,82.214,25.05C360.414,165.855,342.411,242.169,342.411,242.169z"/>
<g>
	<path style="fill:#563939;" d="M223.825,285.847c-4.296,0-7.778-3.482-7.778-7.778v-0.726c0-4.296,3.482-7.778,7.778-7.778
		s7.778,3.482,7.778,7.778v0.726C231.603,282.365,228.121,285.847,223.825,285.847z"/>
	<path style="fill:#563939;" d="M288.901,285.847c-4.296,0-7.778-3.482-7.778-7.778v-0.726c0-4.296,3.482-7.778,7.778-7.778
		s7.778,3.482,7.778,7.778v0.726C296.68,282.365,293.197,285.847,288.901,285.847z"/>
</g>
<g>
	<path style="fill:#50B8FF;" d="M229.458,409.119l-38.602-38.602c-5.433-5.433-5.433-14.243,0-19.676l6.588-6.588
		c3.245-3.245,8.506-3.245,11.751,0l47.058,47.058l-17.809,17.809C235.963,411.6,231.94,411.6,229.458,409.119z"/>
	<path style="fill:#50B8FF;" d="M283.048,409.119l38.602-38.602c5.433-5.433,5.433-14.243,0-19.676l-6.588-6.588
		c-3.245-3.245-8.506-3.245-11.751,0l-47.058,47.058l17.809,17.809C276.544,411.6,280.567,411.6,283.048,409.119z"/>
</g>
<g>
	<path style="fill:#2195F2;" d="M264.027,407.502V512h-15.556V407.502c0-4.294,3.485-7.778,7.778-7.778
		C260.553,399.724,264.027,403.209,264.027,407.502z"/>
	<path style="fill:#2195F2;" d="M282.965,452.149c-4.296,0-7.778-3.482-7.778-7.778v-0.726c0-4.296,3.482-7.778,7.778-7.778
		s7.778,3.482,7.778,7.778v0.726C290.743,448.666,287.261,452.149,282.965,452.149z"/>
	<path style="fill:#2195F2;" d="M282.965,488.082c-4.296,0-7.778-3.482-7.778-7.778v-0.726c0-4.296,3.482-7.778,7.778-7.778
		s7.778,3.482,7.778,7.778v0.726C290.743,484.599,287.261,488.082,282.965,488.082z"/>
	<path style="fill:#2195F2;" d="M326.823,432.424V512h-15.556v-79.576c0-4.294,3.474-7.778,7.778-7.778
		C323.339,424.645,326.823,428.13,326.823,432.424z"/>
	<path style="fill:#2195F2;" d="M201.438,432.424V512h-15.556v-79.576c0-4.294,3.474-7.778,7.778-7.778
		C197.954,424.645,201.438,428.13,201.438,432.424z"/>
</g>
<path style="fill:#FEC007;" d="M423.818,49.974l-20.254-23.577c-3.311-3.854-9.276-3.854-12.587,0l-20.254,23.577
	c-4.622,5.38-0.799,13.703,6.293,13.703h40.508C424.618,63.677,428.44,55.354,423.818,49.974z"/>
<path style="fill:#2195F2;" d="M432.066,449.691h-48.729c-4.296,0-7.778-3.482-7.778-7.778s3.482-7.778,7.778-7.778h40.951v-274.17
	h-25.803c-4.296,0-7.778-3.482-7.778-7.778V97.883c0-4.296,3.482-7.778,7.778-7.778s7.778,3.482,7.778,7.778v46.525h25.803
	c4.296,0,7.778,3.482,7.778,7.778v289.725C439.844,446.208,436.362,449.691,432.066,449.691z"/>
<path style="fill:#FEC007;" d="M88.182,49.974l20.254-23.577c3.311-3.854,9.276-3.854,12.587,0l20.254,23.577
	c4.622,5.38,0.799,13.703-6.293,13.703H94.475C87.382,63.677,83.56,55.354,88.182,49.974z"/>
<g>
	<path style="fill:#2195F2;" d="M128.663,449.691H79.934c-4.296,0-7.778-3.482-7.778-7.778V152.187c0-4.296,3.482-7.778,7.778-7.778
		h25.803V97.883c0-4.296,3.482-7.778,7.778-7.778s7.778,3.482,7.778,7.778v54.304c0,4.296-3.482,7.778-7.778,7.778H87.712v274.169
		h40.951c4.296,0,7.778,3.482,7.778,7.778S132.958,449.691,128.663,449.691z"/>
	<path style="fill:#2195F2;" d="M341.852,31.995c-4.296,0-7.778-3.482-7.778-7.778v-0.875c0-4.296,3.482-7.778,7.778-7.778
		s7.778,3.482,7.778,7.778v0.875C349.63,28.512,346.148,31.995,341.852,31.995z"/>
	<path style="fill:#2195F2;" d="M170.148,31.995c-4.296,0-7.778-3.482-7.778-7.778v-0.875c0-4.296,3.482-7.778,7.778-7.778
		s7.778,3.482,7.778,7.778v0.875C177.926,28.512,174.444,31.995,170.148,31.995z"/>
</g>
<g>
</g>
<g>
</g>
<g>
</g>
<g>
</g>
<g>
</g>
<g>
</g>
<g>
</g>
<g>
</g>
<g>
</g>
<g>
</g>
<g>
</g>
<g>
</g>
<g>
</g>
<g>
</g>
<g>
</g>
</svg>
