<svg enable-background="new 0 0 140 140" height="512" viewBox="0 0 140 140" width="512" xmlns="http://www.w3.org/2000/svg"><circle cx="70" cy="70" fill="#dc594e" r="64"/><path d="m133.3000488 60.5498047c.459961 3.0800781.6999512 6.2402344.6999512 9.4501953 0 33.2597656-25.3699951 60.5898438-57.8200073 63.7001953l-30.289978-30.2700195c-6.5599976-6.3203125-10.6400147-15.1899414-10.6400147-25.0102539 0-2.7001953.3099976-5.3398438.8900146-7.8598633.5899658-2.5302734 1.4500122-4.9501953 2.5499878-7.2299805 0-.0102539.0100098-.0102539.0100098-.0200195.2999878-.6201172.6300049-1.2299805.9699707-1.840332-.0100098 0-.0100098 0-.0100098 0v-1.2998047l-16.289978-16.2900391 46.6300049-12.4399414 46.6300049 12.4399414z" opacity=".1"/><circle cx="70" cy="78.422" fill="#feed32" r="34.75"/><circle cx="70" cy="78.422" fill="#efba1b" r="25.462"/><path d="m68.6261978 96.8610916v-2.8047256c-2.6483231-.1506882-4.6409035-.9915771-5.9789543-2.5234451-1.3384628-1.531868-2.0076942-3.7398758-2.0076942-6.6255951v-.8002853h5.21698c0 .1093063-.0073547.2740479-.0212479.4926682-.0147095.2186127-.0216522.3763275-.0216522.4715805 0 1.4498825.2430954 2.5640411.7301102 3.3432465.4861908.7799911 1.2448959 1.2585983 2.2757111 1.436615v-9.3137817c-2.8199234-1.4764328-4.8304787-2.9708176-6.0328865-4.4816055-1.2024117-1.510788-1.8034096-3.2854691-1.8034096-5.3232727 0-2.3657227.6761742-4.2528381 2.0289383-5.6621246 1.352356-1.4077263 3.223587-2.1674156 5.6141052-2.276722v-2.8099823h2.4260635v2.8513641c2.4612045.0273247 4.3365173.6839523 5.6247253 1.9690971 1.2878036 1.285141 1.9321136 3.1519547 1.9321136 5.5996628v.5949478h-5.0882797v-.4302063c0-1.1625595-.2324753-2.0721588-.6974258-2.7287827-.4653549-.6558456-1.1133423-1.0048447-1.9431381-1.0462265v8.3901291c3.2632141 1.6138458 5.4923477 3.1527405 6.6874084 4.6158981 1.1950531 1.4631577 1.7927856 3.2885971 1.7927856 5.4770889 0 2.6936417-.7121277 4.793129-2.1359787 6.2968903-1.424263 1.5045395-3.4818039 2.3321533-6.1722107 2.4828415v2.8047256h-2.4260635zm.1932526-22.8056564-.0216522-7.3025208c-.8302078.0687103-1.4671631.3935089-1.9108658.9744034-.4437027.5808868-.6651459 1.3780518-.6651459 2.3899307 0 .7659302.2108231 1.4733047.6332779 2.1229019.4220505.6496048 1.0765686 1.2546998 1.964386 1.8152848zm2.0608063 15.7957153c.9589005-.1647415 1.6885986-.5644989 2.1899109-1.2000427.5009003-.636322.751358-1.4803314.751358-2.5335922 0-1.0391998-.2145004-1.8941422-.6439056-2.5640411-.4293976-.669899-1.1954651-1.3405762-2.2973633-2.0104752z" fill="#e6e7e8"/><g fill="#ffcb08"><circle cx="70" cy="48.317" r="1.799"/><circle cx="70" cy="108.528" r="1.799"/><circle cx="54.947" cy="52.35" r="1.799"/><circle cx="85.053" cy="104.495" r="1.799"/><circle cx="43.928" cy="63.369" r="1.799"/><circle cx="96.072" cy="93.475" r="1.799"/><circle cx="39.894" cy="78.422" r="1.799"/><circle cx="100.106" cy="78.422" r="1.799"/><circle cx="43.928" cy="93.475" r="1.799"/><circle cx="96.072" cy="63.369" r="1.799"/><circle cx="54.947" cy="104.495" r="1.799"/><circle cx="85.053" cy="52.35" r="1.799"/></g><path d="m70.0224533 72.4505844c5.9100266-4.6595535 16.6806793-8.5244942 30.3212662-10.9796333v-17.5939942h-60.6874428v17.5933189c13.6469078 2.4551354 24.4299736 6.3205338 30.3661766 10.9803086z" fill="#344e5c"/><path d="m70.0002289 31.4441662-46.6323853 12.4327907 46.6323853 12.4327889 46.6319275-12.4327889z" fill="#304651"/><path d="m108.7237244 64.2952957c-.5109329 0-.9243774-.4134369-.9243774-.9243698v-18.5695953h-35.1306687c-.5109329 0-.9243698-.4134407-.9243698-.9243736s.4134369-.9243736.9243698-.9243736h36.0550461c.5109253 0 .9243698.4134407.9243698.9243736v19.493969c0 .5109328-.4134445.9243697-.9243698.9243697z" fill="#ececec"/><path d="m111.5753708 69.2677002h-5.8510132l1.5495682-10.2595291h2.7518844z" fill="#ffd25a"/><circle cx="108.65" cy="57.985" fill="#d6b251" r="3.836"/><path d="m100.3308716 61.4731979c-13.6344604 2.4553223-24.4005127 6.3193359-30.3086548 10.9772949-5.9343262-4.6582031-16.7125244-8.5227051-30.3532104-10.9777832-.3412476.609375-.6728516 1.2248535-.9777222 1.8562012l.6102905.1101074c13.3867188 2.4082031 23.8583984 6.1669922 29.4853516 10.5849609l1.2382812.9716797 1.2353516-.9746094c5.5986328-4.4150391 16.0537109-8.1728516 29.4375-10.5810547l.6106567-.1101074c-.3049316-.6313476-.6365356-1.2470702-.9778442-1.8566894z" fill="#19282f" opacity=".1"/></svg>